<?xml version="1.0" encoding="UTF-8"?>
<svg version="1.1" xmlns="http://www.w3.org/2000/svg" width="1024" height="1024">
<path d="M0 0 C11.58881577 6.75421778 18.81577835 15.53844013 22.546875 28.484375 C22.69116211 31.73242188 22.69116211 31.73242188 22.57421875 35.203125 C22.56326172 36.46511719 22.55230469 37.72710937 22.54101562 39.02734375 C22.50324466 41.66610181 22.43028921 44.30458967 22.32226562 46.94140625 C22.32420404 50.73682709 22.43849104 53.85014626 23.546875 57.484375 C26.84560613 60.47379553 30.44002856 61.87439636 34.546875 63.484375 C41.74608648 67.86846796 48.13364178 73.73182101 54.3046875 79.4296875 C56.23793813 81.20127257 58.20976834 82.88219841 60.234375 84.546875 C63.28603053 87.15349743 65.89254613 89.99034047 68.484375 93.05078125 C70.04666842 94.89416913 71.6277941 96.7076716 73.234375 98.51171875 C81.06248823 107.36800207 87.87928728 116.73548585 94.546875 126.484375 C95.48373639 127.84288854 96.42122498 129.20096978 97.359375 130.55859375 C100.98817636 135.81753075 104.60048214 141.08746997 108.1875 146.375 C118.4491646 161.4623593 129.32700906 176.09761142 140.546875 190.484375 C141.43753185 191.63408991 142.32815584 192.78383028 143.21875 193.93359375 C148.20236117 200.34450267 153.29371537 206.63969821 158.57324219 212.80957031 C161.36101255 216.06823446 164.06548876 219.37674393 166.734375 222.734375 C173.21791976 230.70960487 180.39048295 238.1138396 187.546875 245.484375 C187.92871948 245.998293 188.31056396 246.512211 188.70397949 247.04170227 C190.921028 249.76137342 192.5478548 251.2740932 196.04344177 252.00987244 C199.14600867 252.19227508 202.19754435 252.18387141 205.3046875 252.11328125 C207.01384842 252.11605324 207.01384842 252.11605324 208.75753784 252.11888123 C212.39638308 252.12312651 216.03329117 252.08903285 219.671875 252.046875 C223.28891435 252.0099122 226.90470269 251.98238601 230.52194214 251.98558044 C232.7682455 251.98732869 235.01472429 251.96670808 237.26052856 251.91932678 C249.37431603 251.92255006 259.64773757 256.68150461 268.2265625 265.140625 C275.50689194 273.10914479 278.94107801 282.45207934 278.921875 293.171875 C278.92272095 294.36127686 278.92272095 294.36127686 278.92358398 295.57470703 C278.80043963 302.18412713 277.25230451 307.46506597 274.546875 313.484375 C274.19775833 314.81366294 273.86196208 316.14661231 273.546875 317.484375 C274.29408813 317.89163818 274.29408813 317.89163818 275.05639648 318.30712891 C302.07578504 333.07110513 302.07578504 333.07110513 304.546875 340.484375 C305.08912959 345.15132022 305.0167206 348.56208548 302.859375 352.796875 C299.76019393 356.39862597 297.08900663 358.97033112 292.546875 360.484375 C286.52391715 360.91999774 282.51584954 360.06500886 277.171875 357.171875 C276.49632568 356.82012207 275.82077637 356.46836914 275.12475586 356.10595703 C268.18381872 352.4241115 261.46915231 348.346002 254.80078125 344.1953125 C254.12611281 343.78509417 253.45144438 343.37487583 252.75633144 342.95222664 C250.546875 341.484375 250.546875 341.484375 248.90538883 339.93430901 C240.99297885 333.04380085 230.26008594 334.64917814 220.42163086 334.71142578 C218.26268409 334.70324971 216.10374593 334.69244427 213.94482422 334.67921448 C208.1003235 334.65082088 202.25638725 334.6591168 196.41185832 334.67408228 C190.29791453 334.68347096 184.18410767 334.65900355 178.07020569 334.63815308 C166.50005659 334.60382595 154.93010517 334.59987349 143.35991532 334.60687816 C130.18456473 334.61337237 117.00935283 334.58593742 103.83404338 334.55567575 C76.73830644 334.4941999 49.64267366 334.47525676 22.546875 334.484375 C22.55056217 335.62867131 22.55424934 336.77296762 22.55804825 337.95193958 C22.64689823 365.81204893 22.71260262 393.67213987 22.75412369 421.53236103 C22.75820298 424.21599147 22.76236826 426.89962176 22.76660156 429.58325195 C22.7676508 430.25026425 22.76870005 430.91727654 22.76978108 431.60450133 C22.78716312 442.38974826 22.81868858 453.17490947 22.85548618 463.96010564 C22.89295705 475.03540597 22.91482461 486.11065915 22.92322898 497.1860196 C22.9284376 503.40325107 22.94065522 509.62028846 22.96979523 515.83745766 C22.99702066 521.69379952 23.00530548 527.54986802 22.99930573 533.40626717 C23.00040276 535.55120074 23.00831385 537.6961438 23.0236969 539.84102249 C23.13128928 555.62182139 22.06570051 567.46345759 10.76953125 579.35546875 C1.06414875 588.58451346 -10.07679306 591.07300344 -23.04296875 590.828125 C-34.0046724 590.26296735 -43.46029209 584.0368538 -50.703125 576.109375 C-57.20567514 568.10487714 -59.76305583 559.43677543 -59.69363403 549.25894165 C-59.69534288 548.33909937 -59.69705173 547.41925709 -59.69881237 546.47154081 C-59.70210218 543.39452175 -59.69111184 540.31772157 -59.68017578 537.24072266 C-59.67961156 535.03296921 -59.67992844 532.82521539 -59.68106079 530.61746216 C-59.68163487 524.62624013 -59.66987154 518.6350981 -59.65591288 512.64389467 C-59.64341477 506.38185309 -59.64223574 500.1198097 -59.63986206 493.85775757 C-59.63435111 483.34802967 -59.62185661 472.83832652 -59.60400391 462.32861328 C-59.58563721 451.50504706 -59.57148457 440.68148882 -59.56298828 429.85791016 C-59.56246283 429.19039949 -59.56193739 428.52288882 -59.56139602 427.83515055 C-59.55878588 424.48634245 -59.55625848 421.13753429 -59.55377221 417.78872609 C-59.53286417 390.02058862 -59.49768298 362.25248388 -59.453125 334.484375 C-60.59226758 334.48806217 -61.73141016 334.49174934 -62.90507221 334.49554825 C-90.6400034 334.58439916 -118.37491609 334.65010306 -146.1099596 334.69162369 C-148.78155845 334.69572961 -151.45315721 334.69986826 -154.12475586 334.70410156 C-154.78877754 334.7051508 -155.45279922 334.70620005 -156.13694277 334.70728108 C-166.2071402 334.72358382 -176.27726176 334.75165543 -186.34741211 334.78613281 C-198.03954291 334.82603762 -209.73160555 334.85181666 -221.42380255 334.86072898 C-227.61308874 334.86593749 -233.80217996 334.87815444 -239.99140358 334.90729523 C-245.82148094 334.93452166 -251.65128371 334.94280528 -257.48141861 334.93680573 C-259.6166769 334.93790272 -261.75194474 334.94581321 -263.8871479 334.9611969 C-279.51987153 335.06826666 -292.55217149 333.934394 -304.42578125 322.6015625 C-308.37160666 318.3290127 -311.28769836 313.88254757 -313.453125 308.484375 C-313.81019531 307.59492187 -314.16726563 306.70546875 -314.53515625 305.7890625 C-317.04617049 296.74941125 -316.87212134 285.11630112 -312.7109375 276.6484375 C-312.29585937 275.93429687 -311.88078125 275.22015625 -311.453125 274.484375 C-311.01742187 273.70835937 -310.58171875 272.93234375 -310.1328125 272.1328125 C-303.71029272 261.63918729 -294.96765859 256.32255286 -283.453125 252.484375 C-280.49029965 252.39010857 -277.55128662 252.35411826 -274.5884552 252.36412048 C-273.6711762 252.36326606 -272.75389719 252.36241163 -271.80882186 252.36153132 C-268.72254457 252.35987881 -265.63632114 252.36539418 -262.55004883 252.37084961 C-260.34273785 252.37113156 -258.13542677 252.3709736 -255.92811584 252.3704071 C-249.92434456 252.37011942 -243.92059314 252.37601145 -237.91682649 252.38298106 C-231.64675639 252.38921945 -225.37668588 252.38981878 -219.10661316 252.39100647 C-208.57896588 252.39376448 -198.05132513 252.40001669 -187.52368164 252.40893555 C-176.67960649 252.41811293 -165.83553332 252.42518071 -154.99145508 252.42944336 C-153.97878005 252.42984536 -153.97878005 252.42984536 -152.94564694 252.43025547 C-147.07320992 252.43256828 -141.20077285 252.4347211 -135.32833576 252.43685818 C-110.03659197 252.44626979 -84.74486753 252.46618968 -59.453125 252.484375 C-59.783125 200.674375 -60.113125 148.864375 -60.453125 95.484375 C-76.22498137 110.04301165 -89.18253339 123.4384365 -101.5078125 140.765625 C-101.99435303 141.44455811 -102.48089355 142.12349121 -102.98217773 142.82299805 C-103.89040429 144.09583766 -104.78913721 145.37553138 -105.67602539 146.66333008 C-109.00863875 151.35073889 -112.42253637 154.81188127 -118.1640625 156.0859375 C-124.3700802 156.1405359 -128.20852062 155.27103039 -132.92578125 151.11328125 C-136.69751164 147.09074526 -137.09112943 142.56163887 -136.94140625 137.203125 C-135.96832476 131.78500725 -132.68028475 127.82359656 -129.453125 123.484375 C-128.53605912 122.21903924 -127.61941688 120.95339636 -126.703125 119.6875 C-120.32534438 110.96606439 -113.59935484 102.58591681 -106.453125 94.484375 C-105.72609375 93.65462158 -105.72609375 93.65462158 -104.984375 92.80810547 C-98.33724437 85.26300635 -91.47348888 78.60102891 -83.453125 72.484375 C-82.4734375 71.71222656 -81.49375 70.94007813 -80.484375 70.14453125 C-72.33473863 63.83276391 -72.33473863 63.83276391 -68.66186523 62.38134766 C-65.44888068 61.02624659 -63.04960375 59.82429233 -60.453125 57.484375 C-59.02032762 52.72306142 -59.27620041 48.16602797 -59.515625 43.234375 C-59.77174021 34.04216711 -59.81591562 26.73895601 -55.453125 18.484375 C-54.98390625 17.59363281 -54.5146875 16.70289063 -54.03125 15.78515625 C-42.22723109 -1.88615441 -19.62481552 -9.64977117 0 0 Z M22.546875 95.484375 C22.546875 147.294375 22.546875 199.104375 22.546875 252.484375 C64.456875 252.484375 106.366875 252.484375 149.546875 252.484375 C144.64836377 245.91930323 144.64836377 245.91930323 139.359375 239.859375 C135.30886364 235.42342266 131.58563759 230.81190289 127.90869141 226.06860352 C124.94666062 222.25176873 121.92737286 218.49232625 118.85424805 214.7644043 C103.7743065 196.4480141 90.2518173 176.90610146 76.921875 157.296875 C64.12151628 138.47652162 50.82821417 120.73527786 34.734375 104.546875 C34.18297852 103.99080566 33.63158203 103.43473633 33.06347656 102.86181641 C28.51809635 97.7227471 28.51809635 97.7227471 22.546875 95.484375 Z " fill="#4D0E13" transform="translate(530.453125,218.515625)"/>
<path d="M0 0 C1.85137825 -0.0049926 1.85137825 -0.0049926 3.74015808 -0.01008606 C6.33938224 -0.01511647 8.93861277 -0.0174956 11.5378418 -0.01733398 C15.43224286 -0.01950437 19.32635257 -0.03765822 23.22070312 -0.05664062 C68.16186217 -0.15753208 112.79688403 6.6507675 155.66796875 20.16796875 C156.69776855 20.48878418 157.72756836 20.80959961 158.78857422 21.14013672 C218.73929536 39.95776304 274.35725988 70.50298878 321.88037109 111.66748047 C323.20339695 112.77801269 324.5516461 113.85864805 325.91259766 114.92236328 C334.22812803 121.48199357 341.64300557 128.8387578 349.10253906 136.34179688 C351.28881751 138.53879715 353.48558813 140.72489553 355.68359375 142.91015625 C363.14088494 150.36043008 370.16842663 157.85946315 376.66796875 166.16796875 C377.57872818 167.24682645 378.49669679 168.31969503 379.42578125 169.3828125 C390.83211715 182.50198102 401.32278015 196.50884938 410.66796875 211.16796875 C411.53998038 212.50155339 412.41240944 213.83486513 413.28515625 215.16796875 C472.61787001 306.58191799 497.89966204 417.86441696 477.296875 574.84375 C475.92367713 580.99949857 474.34623548 587.08887364 472.66796875 593.16796875 C472.32813965 594.3998291 471.98831055 595.63168945 471.63818359 596.90087891 C453.5946924 661.57187833 422.47768151 722.93489373 378.48632812 773.87866211 C376.73041723 775.91705513 375.00778029 777.97146343 373.29931641 780.05078125 C366.24144535 788.61017841 358.63618564 796.50820931 350.77050781 804.32617188 C348.66365323 806.42226223 346.56776773 808.52889777 344.47265625 810.63671875 C337.17318918 817.94333515 329.7998861 824.78930335 321.66796875 831.16796875 C320.58922719 832.07886574 319.51635254 832.99682275 318.453125 833.92578125 C297.08976431 852.49995137 273.45441093 868.1097154 248.80566406 881.95654297 C246.80583644 883.08983953 244.82477985 884.24953879 242.84765625 885.421875 C193.29691297 914.53617953 135.66867806 930.94096565 79.10546875 938.91796875 C78.35459991 939.02506165 77.60373108 939.13215454 76.83010864 939.24249268 C57.88679956 941.91963435 39.14959334 942.35444605 20.03466797 942.35327148 C16.07248089 942.3554525 12.1105754 942.37364993 8.1484375 942.39257812 C-6.79692354 942.42652095 -21.488278 941.93074244 -36.33203125 940.16796875 C-37.08671692 940.08108795 -37.84140259 939.99420715 -38.61895752 939.9046936 C-43.53368154 939.33259315 -48.43442016 938.68354461 -53.33203125 937.98046875 C-54.06772339 937.87536987 -54.80341553 937.770271 -55.56140137 937.6619873 C-99.48473081 931.30142184 -142.00141306 917.47001531 -182.33203125 899.16796875 C-183.14542969 898.80380859 -183.95882813 898.43964844 -184.796875 898.06445312 C-225.51394865 879.77854238 -263.08172082 853.80420865 -296.33203125 824.16796875 C-297.04093506 823.54664063 -297.74983887 822.9253125 -298.48022461 822.28515625 C-305.56937175 816.01149746 -312.29124955 809.39491198 -318.98217773 802.703125 C-320.88962065 800.79787371 -322.80494592 798.90079262 -324.72070312 797.00390625 C-331.72735406 790.02896373 -338.20670031 782.93752375 -344.33203125 775.16796875 C-345.25470783 774.07754652 -346.184361 772.99293432 -347.125 771.91796875 C-366.55171807 749.60734962 -382.85375195 724.38255078 -397.05908203 698.48779297 C-398.22981362 696.35425029 -399.41808441 694.231476 -400.609375 692.109375 C-444.71317981 612.40955077 -460.97591152 517.8653956 -437.1171875 341.28125 C-428.42355873 311.13851193 -416.75924193 282.12657425 -402.39306641 254.23242188 C-401.65884649 252.80385225 -400.92968094 251.37267779 -400.20458984 249.93945312 C-388.04068539 225.90523824 -373.08855032 203.2515612 -356.33203125 182.16796875 C-355.68105469 181.33523437 -355.03007812 180.5025 -354.359375 179.64453125 C-350.48171958 174.72381041 -346.46519852 169.92909223 -342.39453125 165.16796875 C-341.69577881 164.35017944 -341.69577881 164.35017944 -340.98291016 163.51586914 C-339.44218237 161.72467433 -337.88950844 159.94462136 -336.33203125 158.16796875 C-335.70651367 157.4519751 -335.08099609 156.73598145 -334.43652344 155.99829102 C-328.29854101 149.06933877 -321.83791412 142.48767619 -315.29443359 135.94506836 C-313.46160856 134.11005153 -311.63696115 132.26715625 -309.8125 130.42382812 C-302.95739042 123.53635499 -295.96444237 117.19435989 -288.33203125 111.16796875 C-287.25356191 110.25674947 -286.18065973 109.33883461 -285.1171875 108.41015625 C-271.99801898 97.00382035 -257.99115062 86.51315735 -243.33203125 77.16796875 C-241.99844661 76.29595712 -240.66513487 75.42352806 -239.33203125 74.55078125 C-209.18159154 54.98048925 -177.15079681 39.3127448 -143.33203125 27.16796875 C-142.26194824 26.78157227 -141.19186523 26.39517578 -140.08935547 25.99707031 C-95.65559342 10.12359281 -47.29246569 0.04583668 0 0 Z M-31.33203125 23.16796875 C-32.43289063 23.30219238 -33.53375 23.43641602 -34.66796875 23.57470703 C-105.60231529 32.49087002 -172.95203548 56.65184372 -232.58203125 96.16796875 C-233.21629028 96.58708527 -233.85054932 97.00620178 -234.50402832 97.4380188 C-243.40394111 103.33346845 -251.95635167 109.54990207 -260.33203125 116.16796875 C-261.09290039 116.76577148 -261.85376953 117.36357422 -262.63769531 117.97949219 C-271.28937784 124.82084699 -279.58857863 131.9500419 -287.59570312 139.53320312 C-289.51109978 141.33656308 -291.44380167 143.1201543 -293.37890625 144.90234375 C-299.90465854 150.93008609 -306.30655336 156.94327369 -312.13671875 163.66015625 C-313.77949212 165.53677636 -315.44086055 167.36382405 -317.15234375 169.17578125 C-323.91823614 176.34487362 -330.1223355 183.78389537 -336.11962891 191.60449219 C-337.79447618 193.76432343 -339.53402638 195.86923602 -341.26953125 197.98046875 C-381.74589284 248.53461832 -410.27462764 311.81690643 -423.33203125 375.16796875 C-423.55439453 376.22628906 -423.77675781 377.28460938 -424.00585938 378.375 C-426.97388499 392.63167006 -429.41507135 406.91532969 -431.0234375 421.390625 C-431.22291274 423.1859022 -431.4306785 424.98028619 -431.6484375 426.7734375 C-443.08271456 522.44504683 -417.77700915 623.58342498 -341.33203125 744.16796875 C-340.89890625 744.73257813 -340.46578125 745.2971875 -340.01953125 745.87890625 C-334.70694935 752.79129974 -329.28956616 759.51275318 -323.3828125 765.93359375 C-321.46817434 768.01963761 -319.61380167 770.14478921 -317.76953125 772.29296875 C-314.76266855 775.75120807 -311.56020536 778.96097005 -308.29296875 782.171875 C-306.41542004 784.08308494 -304.68393711 786.0583151 -302.95703125 788.10546875 C-299.64017704 791.95152892 -295.99877742 795.2749967 -292.1875 798.625 C-290.114636 800.47101158 -288.08306868 802.33298147 -286.0703125 804.2421875 C-278.64935426 811.27522485 -271.00157031 817.76464242 -262.87939453 823.97167969 C-260.72300712 825.63881417 -258.62468897 827.37432382 -256.51953125 829.10546875 C-218.18741186 859.79621793 -172.8465157 882.8859462 -126.33203125 898.16796875 C-125.47222656 898.45623535 -124.61242187 898.74450195 -123.7265625 899.04150391 C-95.87345439 908.36822898 -67.38225715 914.60416019 -38.26953125 918.41796875 C-36.41702759 918.66281006 -36.41702759 918.66281006 -34.52709961 918.91259766 C-18.29139102 920.94219632 -2.14942147 921.35456148 14.19482422 921.35327148 C17.26804619 921.35545107 20.34090383 921.37366865 23.4140625 921.39257812 C43.00509191 921.4494369 62.3492175 919.77602166 81.73046875 916.98046875 C82.82527557 916.82431595 82.82527557 916.82431595 83.94219971 916.66500854 C125.56694543 910.65498556 165.91730586 897.91352032 204.05761719 880.36669922 C205.77737227 879.57695011 207.49933784 878.79199423 209.22363281 878.01220703 C223.95299927 871.34246514 237.85069894 863.5540491 251.66796875 855.16796875 C252.95646729 854.39018066 252.95646729 854.39018066 254.27099609 853.59667969 C266.58470234 846.1271918 278.22018004 837.89976895 289.66796875 829.16796875 C290.33231934 828.66346191 290.99666992 828.15895508 291.68115234 827.63916016 C298.81805914 822.20003585 305.62758587 816.55204113 312.20703125 810.4453125 C314.40756321 808.40894721 316.64525578 806.43535022 318.91796875 804.48046875 C322.05903958 801.75437679 324.98453464 798.87549993 327.89453125 795.90625 C329.70962478 794.1271385 331.60089765 792.49433112 333.54296875 790.85546875 C337.56303635 787.39525582 341.01616317 783.54833321 344.515625 779.5703125 C346.33822409 777.53601406 348.202175 775.62362347 350.16796875 773.73046875 C353.85782956 770.09998501 357.06041266 766.12511766 360.30078125 762.09375 C362.60694271 759.24339533 364.97590971 756.45712402 367.35546875 753.66796875 C378.5185737 740.26877601 388.47107978 725.97298452 397.66796875 711.16796875 C398.04727539 710.56098145 398.42658203 709.95399414 398.81738281 709.32861328 C445.78135333 633.83454791 468.21789108 547.65160948 455.51367188 369.08789062 C437.29865502 292.13067848 398.94049374 215.99390436 341.890625 160.390625 C339.90773326 158.40773326 338.09317266 156.37769992 336.29296875 154.23046875 C332.03514056 149.2663186 327.14185258 145.00030936 322.28710938 140.63867188 C320.67212027 139.17173967 319.08121153 137.68271254 317.49609375 136.18359375 C310.41858455 129.50469542 303.07739757 123.36071208 295.34277344 117.45751953 C293.79301842 116.26425335 292.26460529 115.04340683 290.73828125 113.8203125 C279.89634138 105.20715337 268.26308066 97.71817537 256.66796875 90.16796875 C256.00764648 89.73709961 255.34732422 89.30623047 254.66699219 88.86230469 C211.77714964 61.08338729 162.47176804 42.09248001 112.66796875 31.16796875 C111.62125 30.93529297 110.57453125 30.70261719 109.49609375 30.46289062 C96.08072053 27.5345349 82.60771077 25.52142633 68.98046875 23.91796875 C68.27484802 23.83479401 67.56922729 23.75161926 66.84222412 23.66592407 C49.96841751 21.70430646 33.26832026 20.96096349 16.29296875 20.98046875 C14.83298462 20.98137512 14.83298462 20.98137512 13.34350586 20.9822998 C-1.6386979 21.00750995 -16.44421183 21.33890782 -31.33203125 23.16796875 Z " fill="#4C0D12" transform="translate(495.33203125,40.83203125)"/>
<path d="M0 0 C11.58881577 6.75421778 18.81577835 15.53844013 22.546875 28.484375 C22.69116211 31.73242187 22.69116211 31.73242187 22.57421875 35.203125 C22.5577832 37.09611328 22.5577832 37.09611328 22.54101562 39.02734375 C22.50324466 41.66610181 22.43028921 44.30458967 22.32226562 46.94140625 C22.32420404 50.73682709 22.43849104 53.85014626 23.546875 57.484375 C26.84560613 60.47379553 30.44002856 61.87439636 34.546875 63.484375 C41.74608648 67.86846796 48.13364178 73.73182101 54.3046875 79.4296875 C56.23793813 81.20127257 58.20976834 82.88219841 60.234375 84.546875 C63.28603053 87.15349743 65.89254613 89.99034047 68.484375 93.05078125 C70.04666842 94.89416913 71.6277941 96.7076716 73.234375 98.51171875 C81.06248823 107.36800207 87.87928728 116.73548585 94.546875 126.484375 C95.48373639 127.84288854 96.42122498 129.20096978 97.359375 130.55859375 C100.98817636 135.81753075 104.60048214 141.08746997 108.1875 146.375 C118.4491646 161.4623593 129.32700906 176.09761142 140.546875 190.484375 C141.43753185 191.63408991 142.32815584 192.78383028 143.21875 193.93359375 C148.20236117 200.34450267 153.29371537 206.63969821 158.57324219 212.80957031 C161.36101255 216.06823446 164.06548876 219.37674393 166.734375 222.734375 C173.21791976 230.70960487 180.39048295 238.1138396 187.546875 245.484375 C187.92871948 245.998293 188.31056396 246.512211 188.70397949 247.04170227 C190.921028 249.76137342 192.5478548 251.2740932 196.04344177 252.00987244 C199.14600867 252.19227508 202.19754435 252.18387141 205.3046875 252.11328125 C207.01384842 252.11605324 207.01384842 252.11605324 208.75753784 252.11888123 C212.39638308 252.12312651 216.03329117 252.08903285 219.671875 252.046875 C223.28891435 252.0099122 226.90470269 251.98238601 230.52194214 251.98558044 C232.7682455 251.98732869 235.01472429 251.96670808 237.26052856 251.91932678 C249.37431603 251.92255006 259.64773757 256.68150461 268.2265625 265.140625 C275.50689194 273.10914479 278.94107801 282.45207934 278.921875 293.171875 C278.92272095 294.36127686 278.92272095 294.36127686 278.92358398 295.57470703 C278.80043963 302.18412713 277.25230451 307.46506597 274.546875 313.484375 C274.19775833 314.81366294 273.86196208 316.14661231 273.546875 317.484375 C274.04501709 317.75588379 274.54315918 318.02739258 275.05639648 318.30712891 C302.07578504 333.07110513 302.07578504 333.07110513 304.546875 340.484375 C305.08912959 345.15132022 305.0167206 348.56208548 302.859375 352.796875 C299.76019393 356.39862597 297.08900663 358.97033112 292.546875 360.484375 C286.524064 360.91998712 282.51563976 360.06521069 277.171875 357.171875 C276.49560059 356.81939697 275.81932617 356.46691895 275.12255859 356.10375977 C256.66973038 346.30846422 240.03044586 334.23217446 223.546875 321.484375 C222.56968506 320.73220703 222.56968506 320.73220703 221.57275391 319.96484375 C214.84109449 314.77938692 208.27104867 309.52052086 202.0234375 303.75 C199.95661729 301.8592181 197.86416184 300.01287418 195.75 298.17578125 C191.64301695 294.59187092 187.64250974 290.90576228 183.671875 287.171875 C182.97715088 286.51888428 182.28242676 285.86589355 181.56665039 285.19311523 C172.86809263 276.98965485 164.53999093 268.61838226 156.84375 259.45703125 C153.96283547 256.07649866 151.08993279 253.01461613 147.671875 250.171875 C143.14099875 246.30679545 139.59349087 241.83950095 135.90722656 237.18164062 C134.39960003 235.3006249 132.86320568 233.44594322 131.3203125 231.59375 C123.68129229 222.42198487 116.29460617 213.09576375 109.11279297 203.56201172 C107.57618313 201.5232606 106.03281523 199.48978285 104.48828125 197.45703125 C94.55762502 184.34972369 85.16591983 170.89487305 75.921875 157.296875 C63.28693116 138.71982562 50.17030396 121.16042035 34.359375 105.109375 C33.62883911 104.35926147 33.62883911 104.35926147 32.88354492 103.59399414 C29.68491589 100.38778413 26.31893827 97.96505531 22.546875 95.484375 C21.91007813 94.82566406 21.27328125 94.16695313 20.6171875 93.48828125 C17.88127773 90.84012707 14.7667548 89.17087837 11.421875 87.421875 C10.75824951 87.07116943 10.09462402 86.72046387 9.41088867 86.35913086 C4.27906964 83.71524056 -0.81763368 81.78322157 -6.453125 80.484375 C-7.07832031 80.30132812 -7.70351563 80.11828125 -8.34765625 79.9296875 C-23.35059078 76.75652509 -39.56102801 81.46309857 -52.328125 89.234375 C-59.38244892 94.15599634 -65.65119213 99.99625718 -71.84326172 105.94189453 C-73.38058463 107.4148709 -74.93352136 108.86970063 -76.48828125 110.32421875 C-86.09609422 119.46347335 -93.84018595 129.98628205 -101.5078125 140.765625 C-101.99435303 141.44455811 -102.48089355 142.12349121 -102.98217773 142.82299805 C-103.89040429 144.09583766 -104.78913721 145.37553138 -105.67602539 146.66333008 C-109.00863875 151.35073889 -112.42253637 154.81188127 -118.1640625 156.0859375 C-124.3700802 156.1405359 -128.20852062 155.27103039 -132.92578125 151.11328125 C-136.69751164 147.09074526 -137.09112943 142.56163887 -136.94140625 137.203125 C-135.96832476 131.78500725 -132.68028475 127.82359656 -129.453125 123.484375 C-128.53605912 122.21903924 -127.61941688 120.95339636 -126.703125 119.6875 C-120.32534438 110.96606439 -113.59935484 102.58591681 -106.453125 94.484375 C-105.9684375 93.93120605 -105.48375 93.37803711 -104.984375 92.80810547 C-98.33724437 85.26300635 -91.47348888 78.60102891 -83.453125 72.484375 C-82.4734375 71.71222656 -81.49375 70.94007813 -80.484375 70.14453125 C-72.33473863 63.83276391 -72.33473863 63.83276391 -68.66186523 62.38134766 C-65.44888068 61.02624659 -63.04960375 59.82429233 -60.453125 57.484375 C-59.02032762 52.72306142 -59.27620041 48.16602797 -59.515625 43.234375 C-59.77174021 34.04216711 -59.81591562 26.73895601 -55.453125 18.484375 C-54.98390625 17.59363281 -54.5146875 16.70289063 -54.03125 15.78515625 C-42.22723109 -1.88615441 -19.62481552 -9.64977117 0 0 Z " fill="#C7A39E" transform="translate(530.453125,218.515625)"/>
<path d="M0 0 C11.60417236 6.76316794 18.78907571 15.53690915 22.546875 28.484375 C22.77392578 31.82763672 22.77392578 31.82763672 22.7421875 35.4140625 C22.73574219 36.703125 22.72929688 37.9921875 22.72265625 39.3203125 C22.70594963 40.66666942 22.68901979 42.01302359 22.671875 43.359375 C22.66183164 44.72916017 22.65270817 46.09895242 22.64453125 47.46875 C22.62101912 50.80747256 22.5881543 54.14583261 22.546875 57.484375 C21.75615601 57.21500122 21.75615601 57.21500122 20.94946289 56.94018555 C-5.28649651 48.08822712 -28.58757798 44.85110596 -54.609375 56.27734375 C-57.453125 57.484375 -57.453125 57.484375 -59.453125 57.484375 C-59.55319938 53.53759529 -59.62515016 49.59132295 -59.67285156 45.64355469 C-59.70247977 43.65273022 -59.75334826 41.66225792 -59.8046875 39.671875 C-59.88508758 31.71226728 -59.1930948 25.55802262 -55.453125 18.484375 C-54.74929688 17.14826172 -54.74929688 17.14826172 -54.03125 15.78515625 C-42.22723109 -1.88615441 -19.62481552 -9.64977117 0 0 Z " fill="#4D0E13" transform="translate(530.453125,218.515625)"/>
<path d="M0 0 C7.3280967 -0.12766215 14.65590252 -0.21471055 21.98486328 -0.2746582 C24.47357907 -0.29967123 26.96222237 -0.3336927 29.45068359 -0.37719727 C33.04543024 -0.43843042 36.63919864 -0.46634345 40.234375 -0.48828125 C41.33174988 -0.51408768 42.42912476 -0.5398941 43.55975342 -0.56648254 C55.74676609 -0.57082372 66.04402542 4.14108553 74.6796875 12.65625 C81.95952581 20.62423223 85.39533406 29.96806248 85.375 40.6875 C85.37483887 41.47970947 85.37467773 42.27191895 85.37451172 43.08813477 C85.22268058 50.93141195 83.37072018 57.44391973 79 64 C75.19811529 63.44228465 72.75731244 62.44006074 69.62890625 60.2265625 C68.81446045 59.65478271 68.00001465 59.08300293 67.16088867 58.49389648 C66.30342041 57.87716064 65.44595215 57.2604248 64.5625 56.625 C63.67087158 55.99086182 62.77924316 55.35672363 61.8605957 54.70336914 C49.57159368 45.90559859 37.98185714 36.45823139 26.65429688 26.45898438 C25.22793316 25.20102251 23.7943284 23.95127973 22.359375 22.703125 C17.00920119 17.99072026 11.92718039 13.02739165 6.875 8 C6.19824219 7.32791504 5.52148438 6.65583008 4.82421875 5.96337891 C4.19902344 5.33608887 3.57382812 4.70879883 2.9296875 4.0625 C2.36491699 3.49660156 1.80014648 2.93070312 1.21826172 2.34765625 C0 1 0 1 0 0 Z " fill="#4D0E13" transform="translate(724,471)"/>
</svg>
